<svg xmlns="http://www.w3.org/2000/svg" width="900" height="500" viewBox="0 0 900 500" font-family="-apple-system,BlinkMacSystemFont,&quot;Segoe UI&quot;,Roboto,Helvetica,Arial,sans-serif"><defs><linearGradient id="vy" x1="0" y1="0" x2="0" y2="1"><stop offset="0" stop-color="#6366f1"/><stop offset="1" stop-color="#4338ca"/></linearGradient><filter id="sh" x="-20%" y="-20%" width="140%" height="140%"><feDropShadow dx="0" dy="1" stdDeviation="1.5" flood-color="#0f172a" flood-opacity="0.10"/></filter></defs><rect x="0" y="0" width="900" height="500" rx="18" fill="#ffffff"/><rect x="0.5" y="0.5" width="899" height="499" rx="18" fill="none" stroke="#e5e7eb"/><text x="40" y="50" font-size="25" font-weight="700" fill="#0f172a">VYaml vs YamlDotNet</text><text x="40" y="76" font-size="14" fill="#64748b">sample_envoy.yaml (~2.4 KB) · .NET 9 · Apple Silicon · lower is better</text><rect x="600" y="33" width="14" height="14" rx="3" fill="url(#vy)"/><text x="620" y="45" font-size="14" font-weight="600" fill="#0f172a">VYaml</text><rect x="692" y="33" width="14" height="14" rx="3" fill="#cbd5e1" stroke="#94a3b8"/><text x="712" y="45" font-size="14" font-weight="600" fill="#0f172a">YamlDotNet</text><text x="56" y="108" font-size="16" font-weight="700" fill="#0f172a">Time</text><text x="448" y="108" font-size="12" fill="#64748b" text-anchor="end">microseconds (µs)</text><line x1="56" y1="430.0" x2="448" y2="430.0" stroke="#eef2f7" stroke-width="1"/><text x="46" y="434.0" font-size="11" fill="#64748b" text-anchor="end">0</text><line x1="56" y1="356.0" x2="448" y2="356.0" stroke="#eef2f7" stroke-width="1"/><text x="46" y="360.0" font-size="11" fill="#64748b" text-anchor="end">15</text><line x1="56" y1="282.0" x2="448" y2="282.0" stroke="#eef2f7" stroke-width="1"/><text x="46" y="286.0" font-size="11" fill="#64748b" text-anchor="end">30</text><line x1="56" y1="208.0" x2="448" y2="208.0" stroke="#eef2f7" stroke-width="1"/><text x="46" y="212.0" font-size="11" fill="#64748b" text-anchor="end">45</text><line x1="56" y1="134.0" x2="448" y2="134.0" stroke="#eef2f7" stroke-width="1"/><text x="46" y="138.0" font-size="11" fill="#64748b" text-anchor="end">60</text><rect x="88.0" y="383.6" width="58" height="46.4" rx="6" fill="url(#vy)" filter="url(#sh)"/><text x="117.0" y="375.6" font-size="13" font-weight="700" fill="#4338ca" text-anchor="middle">9.4 µs</text><rect x="162.0" y="138.9" width="58" height="291.1" rx="6" fill="#cbd5e1" stroke="#94a3b8" filter="url(#sh)"/><text x="191.0" y="130.9" font-size="13" font-weight="600" fill="#64748b" text-anchor="middle">59.0 µs</text><text x="154.0" y="452.0" font-size="13" font-weight="600" fill="#0f172a" text-anchor="middle">Deserialize</text><text x="154.0" y="470.0" font-size="12" font-weight="700" fill="#6366f1" text-anchor="middle">6.3× faster</text><rect x="284.0" y="422.1" width="58" height="7.9" rx="6" fill="url(#vy)" filter="url(#sh)"/><text x="313.0" y="414.1" font-size="13" font-weight="700" fill="#4338ca" text-anchor="middle">1.6 µs</text><rect x="358.0" y="243.5" width="58" height="186.5" rx="6" fill="#cbd5e1" stroke="#94a3b8" filter="url(#sh)"/><text x="387.0" y="235.5" font-size="13" font-weight="600" fill="#64748b" text-anchor="middle">37.8 µs</text><text x="350.0" y="452.0" font-size="13" font-weight="600" fill="#0f172a" text-anchor="middle">Serialize</text><text x="350.0" y="470.0" font-size="12" font-weight="700" fill="#6366f1" text-anchor="middle">24× faster</text><line x1="56" y1="430" x2="448" y2="430" stroke="#94a3b8" stroke-width="1.2"/><text x="484" y="108" font-size="16" font-weight="700" fill="#0f172a">Allocation</text><text x="876" y="108" font-size="12" fill="#64748b" text-anchor="end">kilobytes (KB)</text><line x1="484" y1="430.0" x2="876" y2="430.0" stroke="#eef2f7" stroke-width="1"/><text x="474" y="434.0" font-size="11" fill="#64748b" text-anchor="end">0</text><line x1="484" y1="356.0" x2="876" y2="356.0" stroke="#eef2f7" stroke-width="1"/><text x="474" y="360.0" font-size="11" fill="#64748b" text-anchor="end">45</text><line x1="484" y1="282.0" x2="876" y2="282.0" stroke="#eef2f7" stroke-width="1"/><text x="474" y="286.0" font-size="11" fill="#64748b" text-anchor="end">90</text><line x1="484" y1="208.0" x2="876" y2="208.0" stroke="#eef2f7" stroke-width="1"/><text x="474" y="212.0" font-size="11" fill="#64748b" text-anchor="end">135</text><line x1="484" y1="134.0" x2="876" y2="134.0" stroke="#eef2f7" stroke-width="1"/><text x="474" y="138.0" font-size="11" fill="#64748b" text-anchor="end">180</text><rect x="516.0" y="426.4" width="58" height="3.6" rx="6" fill="url(#vy)" filter="url(#sh)"/><text x="545.0" y="418.4" font-size="13" font-weight="700" fill="#4338ca" text-anchor="middle">2.2 KB</text><rect x="590.0" y="148.8" width="58" height="281.2" rx="6" fill="#cbd5e1" stroke="#94a3b8" filter="url(#sh)"/><text x="619.0" y="140.8" font-size="13" font-weight="600" fill="#64748b" text-anchor="middle">171 KB</text><text x="582.0" y="452.0" font-size="13" font-weight="600" fill="#0f172a" text-anchor="middle">Deserialize</text><text x="582.0" y="470.0" font-size="12" font-weight="700" fill="#6366f1" text-anchor="middle">78× less</text><rect x="712.0" y="424.9" width="58" height="5.1" rx="6" fill="url(#vy)" filter="url(#sh)"/><text x="741.0" y="416.9" font-size="13" font-weight="700" fill="#4338ca" text-anchor="middle">3.1 KB</text><rect x="786.0" y="341.2" width="58" height="88.8" rx="6" fill="#cbd5e1" stroke="#94a3b8" filter="url(#sh)"/><text x="815.0" y="333.2" font-size="13" font-weight="600" fill="#64748b" text-anchor="middle">54 KB</text><text x="778.0" y="452.0" font-size="13" font-weight="600" fill="#0f172a" text-anchor="middle">Serialize</text><text x="778.0" y="470.0" font-size="12" font-weight="700" fill="#6366f1" text-anchor="middle">17× less</text><line x1="484" y1="430" x2="876" y2="430" stroke="#94a3b8" stroke-width="1.2"/></svg>
